<?xml version="1.0" encoding="UTF-8"?>
<!DOCTYPE svg PUBLIC "-//W3C//DTD SVG 1.1//EN" "http://www.w3.org/Graphics/SVG/1.1/DTD/svg11.dtd">
<!-- Creator: CorelDRAW 2019 (64 Bit) -->
<svg xmlns="http://www.w3.org/2000/svg" xml:space="preserve" width="32px" height="32px" version="1.1" style="shape-rendering:geometricPrecision; text-rendering:geometricPrecision; image-rendering:optimizeQuality; fill-rule:evenodd; clip-rule:evenodd"
viewBox="0 0 21.42 21.42"
 xmlns:xlink="http://www.w3.org/1999/xlink">
 <defs>
  <style type="text/css">
   <![CDATA[
    .fil4 {fill:#014FD1}
    .fil8 {fill:#0249CD}
    .fil3 {fill:#0356D4}
    .fil24 {fill:#035ED8}
    .fil1 {fill:#0377DF}
    .fil10 {fill:#03A5B3}
    .fil21 {fill:#03ACA0}
    .fil17 {fill:#0477DC}
    .fil25 {fill:#047DDB}
    .fil30 {fill:#048AD1}
    .fil28 {fill:#049AC1}
    .fil11 {fill:#04A7A7}
    .fil15 {fill:#04B096}
    .fil26 {fill:#05AC9A}
    .fil18 {fill:#07B188}
    .fil13 {fill:#0FB57C}
    .fil31 {fill:#10B46F}
    .fil32 {fill:#123B5D}
    .fil27 {fill:#21B65C}
    .fil29 {fill:#2DB84A}
    .fil23 {fill:#3EBB35}
    .fil22 {fill:#45BB2D}
    .fil20 {fill:#4BBC2A}
    .fil0 {fill:#4DA134}
    .fil9 {fill:#51BE28}
    .fil16 {fill:#53BD25}
    .fil2 {fill:#56BB17}
    .fil14 {fill:#5CBE1E}
    .fil6 {fill:#60C01C}
    .fil12 {fill:#62BE17}
    .fil7 {fill:#69BF14}
    .fil5 {fill:#6FC112}
    .fil19 {fill:#72C311}
   ]]>
  </style>
     <mask id="id0">
  <linearGradient id="id1" gradientUnits="userSpaceOnUse" x1="0" y1="10.71" x2="21.42" y2="10.71">
   <stop offset="0" style="stop-opacity:0; stop-color:white"/>
   <stop offset="0.4" style="stop-opacity:-127.502; stop-color:white"/>
   <stop offset="1" style="stop-opacity:1; stop-color:white"/>
  </linearGradient>
      <rect style="fill:url(#id1)" width="21.42" height="21.42"/>
     </mask>
 </defs>
 <g id="Camada_x0020_1">
  <metadata id="CorelCorpID_0Corel-Layer"/>
  <g id="_2165570797328">
   <g>
    <path class="fil0" style="mask:url(#id0)" d="M3.06 0l15.3 0c1.68,0 3.06,1.38 3.06,3.06l0 15.3c0,1.68 -1.38,3.06 -3.06,3.06l-15.3 0c-1.68,0 -3.06,-1.38 -3.06,-3.06l0 -15.3c0,-1.68 1.38,-3.06 3.06,-3.06z"/>
    <g>
     <path class="fil1" d="M6.38 17.19c0.38,0.26 0.77,0.51 1.16,0.77 0.01,-0.01 0.02,-0.02 0.04,-0.03 -0.21,-2.26 0.53,-4.21 1.91,-5.95 0.06,0.06 0.1,0.15 0.16,0.18 0.11,0.04 0.24,0.05 0.35,0.08 0.16,0.04 0.31,0.09 0.46,0.14 -0.33,0.51 -0.68,1.01 -0.98,1.55 -0.59,1.07 -0.88,2.22 -0.85,3.44 0.01,0.31 0.06,0.62 0.08,0.93 0.01,0.09 0.05,0.12 0.13,0.14 1.04,0.31 2.1,0.39 3.17,0.22 1.37,-0.21 2.57,-0.79 3.63,-1.68 0.26,-0.23 0.62,-0.2 0.84,0.06 0.2,0.24 0.17,0.59 -0.08,0.8 -1.4,1.2 -3.02,1.91 -4.86,2.06 -2.07,0.17 -3.95,-0.39 -5.63,-1.61 -0.15,-0.11 -0.29,-0.22 -0.42,-0.35 0.04,-0.05 0.07,-0.09 0.11,-0.13 0.03,-0.03 0.05,-0.08 0.09,-0.1 0.19,-0.08 0.38,-0.16 0.57,-0.23 0.11,-0.04 0.16,-0.09 0.12,-0.2 -0.01,-0.03 0,-0.06 0,-0.09z"/>
     <path class="fil2" d="M4.06 6.6c0.49,-0.71 1.09,-1.31 1.77,-1.82 1.06,-0.79 2.24,-1.31 3.55,-1.55 0.02,0.13 0.02,0.25 0.02,0.39 0.03,0.24 0.06,0.46 0.09,0.68 -0.38,0.12 -0.77,0.22 -1.15,0.37 -1.3,0.5 -2.38,1.31 -3.22,2.43 -0.04,0.05 -0.08,0.11 -0.13,0.16 -0.05,-0.04 -0.07,-0.08 -0.11,-0.11 -0.27,-0.18 -0.55,-0.37 -0.82,-0.55z"/>
     <path class="fil3" d="M14.73 12.86c0.38,0.16 0.77,0.32 1.15,0.48 0.08,0.03 0.13,0.03 0.2,-0.04 0.81,-0.79 2.08,-0.61 2.66,0.39 -0.03,0.01 -0.04,0.01 -0.06,0.01 -0.37,0.15 -0.6,0.06 -0.69,-0.25 -0.05,-0.19 -0.16,-0.24 -0.34,-0.19 -0.1,0.02 -0.2,0.08 -0.3,0.09 -0.25,0.01 -0.42,0.16 -0.58,0.31 -0.04,0.03 -0.07,0.1 -0.06,0.15 0.04,0.2 0.05,0.38 -0.16,0.5 -0.01,0 -0.02,0.02 -0.02,0.04 -0.09,0.18 -0.18,0.21 -0.38,0.15 -0.04,-0.01 -0.09,0 -0.13,0.01 -0.01,0.01 0.01,0.07 0,0.11 0,0.05 0.02,0.12 -0.01,0.15 -0.1,0.13 -0.22,0.23 -0.4,0.2 -0.02,-0.16 -0.06,-0.31 -0.06,-0.47 0.01,-0.12 -0.03,-0.17 -0.14,-0.2 -0.68,-0.24 -1.34,-0.54 -1.98,-0.91 0,-0.03 0,-0.03 0,-0.04 0.08,-0.07 0.16,-0.18 0.25,-0.19 0.08,-0.02 0.2,0.05 0.19,0.19 0,0.02 0.07,0.05 0.13,0.09 -0.01,-0.22 0.03,-0.29 0.2,-0.33 0.13,-0.04 0.26,-0.07 0.39,-0.12 0.05,-0.02 0.09,-0.08 0.14,-0.13z"/>
     <path class="fil4" d="M15.61 14.98c0.18,0.02 0.3,-0.08 0.4,-0.21 0.03,-0.03 0.01,-0.1 0.01,-0.15 0.01,-0.04 -0.01,-0.1 0,-0.11 0.04,-0.01 0.09,-0.02 0.13,-0.01 0.2,0.06 0.29,0.03 0.38,-0.15 0,-0.02 0.01,-0.04 0.02,-0.04 0.21,-0.12 0.2,-0.3 0.16,-0.5 -0.01,-0.05 0.02,-0.12 0.06,-0.15 0.16,-0.15 0.33,-0.3 0.58,-0.31 0.1,-0.01 0.2,-0.07 0.3,-0.09 0.18,-0.05 0.29,0 0.34,0.19 0.09,0.31 0.32,0.4 0.69,0.25 0.02,0 0.03,0 0.06,0 0.26,0.42 0.3,0.87 0.13,1.34 -0.11,-0.12 -0.2,-0.24 -0.3,-0.36 -0.01,-0.01 -0.02,-0.01 -0.03,-0.01 -0.18,0.03 -0.37,0.03 -0.54,0.09 -0.31,0.1 -0.61,0.23 -0.92,0.36 -0.11,0.05 -0.23,0.1 -0.3,0.18 -0.08,0.1 -0.17,0.14 -0.29,0.17 -0.17,0.05 -0.32,0.15 -0.48,0.23 -0.09,-0.11 -0.17,-0.23 -0.26,-0.36 0.08,-0.21 0.08,-0.21 -0.09,-0.22 -0.02,-0.04 -0.04,-0.08 -0.05,-0.14z"/>
     <path class="fil5" d="M17.08 8.96c-0.01,0.03 -0.03,0.06 -0.06,0.08 -0.2,-0.16 -0.38,-0.32 -0.57,-0.48 -0.25,-0.22 -0.51,-0.44 -0.76,-0.65 -0.1,-0.08 -0.22,-0.14 -0.32,-0.22 -0.22,-0.14 -0.42,-0.3 -0.64,-0.45 -0.1,-0.06 -0.19,-0.11 -0.22,-0.23 0.6,-0.7 1.77,-0.68 2.39,0.03 0.48,0.56 0.54,1.18 0.22,1.85 -0.03,0.03 -0.03,0.05 -0.04,0.07z"/>
     <path class="fil6" d="M14.5 7.01c0.04,0.12 0.13,0.17 0.23,0.23 0.22,0.15 0.42,0.31 0.64,0.45 0.1,0.08 0.22,0.14 0.32,0.22 0.25,0.21 0.51,0.43 0.76,0.65 0.19,0.16 0.37,0.32 0.56,0.49 -0.15,0.17 -0.32,0.33 -0.5,0.48 -0.07,-0.07 -0.11,-0.15 -0.17,-0.19 -0.46,-0.3 -0.92,-0.58 -1.37,-0.87 -0.15,-0.1 -0.3,-0.15 -0.48,-0.13 -0.14,0.02 -0.29,0.04 -0.43,0.07 -0.06,-0.53 0.07,-1 0.44,-1.4z"/>
     <path class="fil7" d="M11.29 1.5c1.02,-0.12 1.98,0.6 2.19,1.66 0.01,0.07 0.02,0.12 0.04,0.16 0,0.02 0,0.03 -0.01,0.06 -0.02,0.15 -0.04,0.3 -0.07,0.44 -0.1,-0.05 -0.18,-0.1 -0.28,-0.14 -0.13,-0.06 -0.29,-0.08 -0.39,-0.18 -0.28,-0.24 -0.63,-0.41 -0.85,-0.73 -0.04,-0.06 -0.11,-0.09 -0.16,-0.14 -0.11,-0.11 -0.25,-0.21 -0.3,-0.34 -0.11,-0.25 -0.19,-0.51 -0.17,-0.79z"/>
     <path class="fil8" d="M16.01 15.7c0.16,-0.08 0.31,-0.18 0.48,-0.23 0.12,-0.03 0.21,-0.07 0.29,-0.17 0.07,-0.08 0.19,-0.13 0.3,-0.18 0.31,-0.13 0.61,-0.26 0.92,-0.36 0.17,-0.06 0.36,-0.06 0.54,-0.09 0.01,0 0.02,0 0.03,0.01 0.1,0.12 0.19,0.24 0.29,0.37 0.01,0.03 0,0.06 -0.03,0.09 -0.05,-0.01 -0.08,-0.04 -0.12,-0.04 -0.05,0 -0.1,0.01 -0.15,0.02 0.02,0.05 0.03,0.11 0.06,0.13 0.04,0.03 0.11,0.02 0.16,0.03 -0.47,0.8 -1.2,1.13 -2.03,0.89 -0.2,-0.06 -0.38,-0.19 -0.56,-0.3 0.09,-0.03 0.17,-0.04 0.24,-0.07 0.04,-0.01 0.06,-0.06 0.09,-0.1 -0.04,-0.02 -0.07,-0.05 -0.11,-0.05 -0.13,0.01 -0.27,0.03 -0.4,0.05 0,0 0,0 0,0z"/>
     <path class="fil9" d="M14.05 8.41c0.15,-0.03 0.3,-0.05 0.44,-0.07 0.18,-0.02 0.33,0.03 0.48,0.13 0.45,0.29 0.91,0.57 1.37,0.87 0.06,0.04 0.1,0.12 0.16,0.19 -0.66,0.37 -1.29,0.33 -1.89,-0.14 -0.11,-0.08 -0.18,0.01 -0.28,0.02 -0.3,-0.11 -0.5,-0.32 -0.65,-0.58 -0.03,-0.06 -0.02,-0.14 -0.04,-0.21 0.14,-0.07 0.27,-0.14 0.41,-0.21z"/>
     <path class="fil10" d="M10.2 11.15c-0.08,-0.08 -0.16,-0.16 -0.24,-0.27 0.08,-0.16 -0.11,-0.19 -0.12,-0.32 0.27,-0.07 0.54,-0.15 0.82,-0.22 0.07,0 0.13,0.15 0.26,0.04 0.05,-0.02 0.1,-0.04 0.15,-0.07 0.31,-0.24 0.63,-0.49 0.96,-0.73 0.1,0.08 0.2,0.13 0.26,0.22 0.1,0.12 0.17,0.26 0.25,0.39 0.03,0.07 0.06,0.14 0.09,0.21 -0.24,0.17 -0.48,0.35 -0.71,0.53 -0.05,0.04 -0.09,0.09 -0.15,0.15 -0.04,0.03 -0.07,0.04 -0.12,0.04 -0.05,-0.02 -0.1,-0.02 -0.14,-0.02 -0.44,0.01 -0.88,0.03 -1.31,0.05z"/>
     <path class="fil11" d="M3.52 15.55c-0.37,-0.59 -0.62,-1.24 -0.78,-1.93 0.09,-0.06 0.18,-0.12 0.27,-0.14 0.2,-0.02 0.41,-0.02 0.62,-0.03 0.02,0 0.04,-0.01 0.06,0 0.04,0.02 0.1,0.06 0.1,0.09 0.01,0.13 0.08,0.13 0.18,0.12 0.19,0.44 0.38,0.88 0.56,1.33 -0.4,0 -0.68,0.3 -1,0.35 -0.01,0.1 -0.01,0.16 -0.01,0.21z"/>
     <path class="fil12" d="M11.28 1.5c-0.01,0.28 0.07,0.54 0.18,0.79 0.05,0.13 0.19,0.23 0.3,0.34 0.05,0.05 0.12,0.08 0.16,0.14 0.22,0.32 0.57,0.49 0.85,0.73 0.1,0.1 0.26,0.12 0.39,0.18 0.1,0.04 0.18,0.09 0.28,0.15 0.02,0.09 0.02,0.16 0.02,0.24 0,0.01 -0.01,0.02 -0.02,0.04 -0.01,0.01 -0.01,0.02 -0.01,0.02 0,0.02 0,0.03 -0.02,0.06 -0.03,0.02 -0.04,0.04 -0.06,0.06 -0.19,-0.04 -0.39,-0.05 -0.54,-0.15 -0.34,-0.21 -0.65,-0.47 -0.97,-0.71 -0.2,-0.15 -0.38,-0.34 -0.59,-0.48 -0.22,-0.14 -0.37,-0.34 -0.51,-0.56 -0.06,-0.09 -0.1,-0.19 -0.23,-0.23 -0.2,-0.08 -0.19,-0.1 -0.1,-0.29 0.01,-0.02 0.01,-0.04 0.01,-0.06 0.26,-0.17 0.54,-0.24 0.86,-0.27z"/>
     <path class="fil13" d="M7.08 9.08c-0.19,-0.51 -0.1,-0.98 0.23,-1.41 0.48,-0.63 1.4,-0.77 2.05,-0.3 -0.04,0.03 -0.08,0.04 -0.12,0.06 -0.31,0.19 -0.61,0.39 -0.93,0.57 -0.22,0.12 -0.41,0.27 -0.54,0.48 -0.17,0.27 -0.38,0.49 -0.69,0.6z"/>
     <path class="fil14" d="M10.41 1.77c0.01,0.02 0.01,0.04 0,0.06 -0.09,0.19 -0.1,0.21 0.1,0.29 0.13,0.04 0.17,0.14 0.23,0.23 0.14,0.22 0.29,0.42 0.52,0.56 0.2,0.14 0.38,0.33 0.58,0.48 0.32,0.24 0.63,0.5 0.97,0.71 0.15,0.1 0.35,0.11 0.55,0.15 0.03,0 0.03,0 0.04,0 -0.06,0.13 -0.13,0.27 -0.21,0.4 -0.23,-0.08 -0.46,-0.14 -0.66,-0.26 -0.27,-0.15 -0.5,-0.37 -0.78,-0.51 -0.37,-0.2 -0.67,-0.5 -1.01,-0.75 -0.19,-0.15 -0.36,-0.34 -0.58,-0.45 -0.17,-0.09 -0.29,-0.2 -0.33,-0.39 0.19,-0.17 0.38,-0.34 0.58,-0.52z"/>
     <path class="fil15" d="M9.75 7.78c0.25,0.28 0.29,0.63 0.25,0.98 -0.03,0.17 -0.12,0.33 -0.2,0.5 -0.21,-0.14 0.08,-0.12 0.06,-0.23 -0.07,-0.05 -0.14,-0.1 -0.21,-0.1 -0.33,0.02 -0.62,0.17 -0.87,0.36 -0.17,0.13 -0.32,0.28 -0.5,0.39 -0.15,0.09 -0.21,0.19 -0.15,0.36 -0.18,-0.09 -0.36,-0.17 -0.54,-0.27 0.03,-0.03 0.06,-0.05 0.08,-0.07 0.07,-0.1 0.13,-0.21 0.21,-0.3 0.03,-0.05 0.08,-0.08 0.12,-0.12 0.25,-0.27 0.49,-0.55 0.76,-0.82 0.19,-0.19 0.42,-0.34 0.62,-0.53 0.11,-0.1 0.22,-0.17 0.37,-0.15z"/>
     <path class="fil16" d="M9.82 2.3c0.05,0.18 0.17,0.29 0.34,0.38 0.22,0.11 0.39,0.3 0.58,0.45 0.34,0.25 0.64,0.55 1.01,0.75 0.28,0.14 0.51,0.36 0.78,0.51 0.2,0.12 0.43,0.18 0.65,0.27 -0.11,0.14 -0.23,0.29 -0.36,0.42 -0.08,-0.07 -0.14,-0.15 -0.21,-0.2 -0.09,-0.05 -0.2,-0.08 -0.3,-0.13 -0.44,-0.26 -0.88,-0.52 -1.33,-0.78 -0.08,-0.04 -0.16,-0.1 -0.23,-0.16 -0.21,-0.19 -0.4,-0.41 -0.62,-0.58 -0.18,-0.14 -0.41,-0.22 -0.54,-0.43 -0.01,-0.01 -0.03,0 -0.05,-0.01 0.09,-0.16 0.18,-0.32 0.28,-0.49z"/>
     <path class="fil17" d="M12.53 12.86c-0.49,-0.35 -0.98,-0.69 -1.48,-1.06 0.07,-0.11 0.14,-0.21 0.22,-0.3 0,0 0.02,0 0.03,0 0.27,-0.01 0.5,-0.07 0.67,-0.28 0.44,0.3 0.88,0.59 1.33,0.9 0.05,0.15 -0.01,0.22 -0.12,0.29 -0.19,0.11 -0.38,0.23 -0.57,0.35 -0.03,0.02 -0.05,0.06 -0.08,0.1z"/>
     <path class="fil18" d="M9.75 7.77c-0.15,-0.01 -0.26,0.06 -0.37,0.16 -0.2,0.19 -0.43,0.34 -0.62,0.53 -0.27,0.27 -0.51,0.55 -0.76,0.82 -0.04,0.04 -0.09,0.07 -0.12,0.12 -0.08,0.1 -0.14,0.2 -0.21,0.3 -0.02,0.02 -0.05,0.04 -0.09,0.06 -0.24,-0.16 -0.4,-0.39 -0.5,-0.67 0.31,-0.12 0.52,-0.34 0.69,-0.61 0.13,-0.21 0.32,-0.36 0.54,-0.48 0.32,-0.18 0.62,-0.38 0.93,-0.57 0.04,-0.02 0.08,-0.03 0.12,-0.05 0.14,0.12 0.26,0.25 0.39,0.39z"/>
     <path class="fil19" d="M2.9 8.9c0.2,-0.68 0.51,-1.29 0.89,-1.88 0.13,0.11 0.25,0.21 0.35,0.33 0.15,0.18 0.29,0.37 0.44,0.56 -0.12,0.25 -0.25,0.5 -0.39,0.76 -0.14,0.12 -0.28,0.17 -0.45,0.17 -0.15,0 -0.29,0.03 -0.44,0.04 -0.13,0.01 -0.27,0.01 -0.4,0.02z"/>
     <path class="fil20" d="M9.53 2.8c0.03,0 0.05,-0.01 0.06,0 0.13,0.21 0.36,0.29 0.54,0.43 0.22,0.17 0.41,0.39 0.62,0.58 0.07,0.06 0.15,0.12 0.23,0.16 0.45,0.26 0.89,0.52 1.33,0.78 0.1,0.05 0.21,0.08 0.3,0.13 0.07,0.05 0.13,0.13 0.2,0.2 -0.13,0.1 -0.26,0.19 -0.4,0.27 -0.23,-0.17 -0.44,-0.33 -0.66,-0.48 -0.27,-0.18 -0.57,-0.33 -0.83,-0.52 -0.31,-0.22 -0.61,-0.45 -0.89,-0.71 -0.22,-0.2 -0.4,-0.24 -0.63,-0.04 0,-0.12 0,-0.24 0,-0.37 0.04,-0.15 0.08,-0.28 0.13,-0.43z"/>
     <path class="fil21" d="M8.14 10.04c-0.07,-0.17 -0.01,-0.27 0.14,-0.36 0.18,-0.11 0.33,-0.26 0.5,-0.39 0.25,-0.19 0.54,-0.34 0.87,-0.36 0.07,0 0.14,0.05 0.21,0.1 0.02,0.11 -0.27,0.09 -0.07,0.24 0.1,0.1 0.18,0.21 0.26,0.32 -0.12,0.03 -0.18,0.12 -0.18,0.22 0.01,0.2 -0.15,0.24 -0.27,0.25 -0.18,0.02 -0.23,0.12 -0.24,0.27 -0.08,-0.08 -0.17,-0.17 -0.26,-0.24 -0.05,-0.04 -0.13,-0.07 -0.19,-0.05 -0.25,0.05 -0.5,0.07 -0.77,0z"/>
     <path class="fil22" d="M9.4 3.62c0.23,-0.22 0.41,-0.18 0.63,0.02 0.28,0.26 0.58,0.49 0.89,0.71 0.26,0.19 0.56,0.34 0.83,0.52 0.22,0.15 0.43,0.31 0.65,0.48 -0.17,0.08 -0.35,0.14 -0.55,0.2 -0.13,-0.15 -0.27,-0.27 -0.36,-0.42 -0.1,-0.17 -0.25,-0.26 -0.43,-0.33 -0.32,-0.12 -0.64,-0.24 -0.89,-0.5 -0.14,-0.15 -0.3,-0.14 -0.47,-0.02 -0.04,0.02 -0.1,0.02 -0.15,0.04 -0.01,-0.01 -0.02,-0.01 -0.05,-0.01 -0.04,-0.23 -0.07,-0.45 -0.1,-0.69z"/>
     <path class="fil10" d="M3.52 15.57c0,-0.07 0,-0.13 0.01,-0.23 0.32,-0.05 0.6,-0.35 1,-0.34 0.2,0.28 0.38,0.56 0.56,0.86 -0.31,0.25 -0.62,0.47 -0.93,0.69 -0.21,-0.32 -0.43,-0.65 -0.64,-0.98z"/>
     <path class="fil23" d="M9.55 4.33c0.05,-0.03 0.11,-0.03 0.15,-0.05 0.17,-0.12 0.33,-0.13 0.47,0.02 0.25,0.26 0.57,0.38 0.89,0.5 0.18,0.07 0.33,0.16 0.43,0.33 0.09,0.15 0.23,0.27 0.35,0.42 -0.61,0.14 -1.16,-0.02 -1.66,-0.39 -0.28,-0.21 -0.49,-0.49 -0.63,-0.83z"/>
     <path class="fil24" d="M12.53 12.87c0.03,-0.05 0.05,-0.09 0.08,-0.11 0.19,-0.12 0.38,-0.24 0.57,-0.35 0.11,-0.07 0.17,-0.14 0.12,-0.28 0.47,0.23 0.94,0.47 1.42,0.73 -0.04,0.05 -0.08,0.11 -0.13,0.13 -0.13,0.05 -0.26,0.08 -0.39,0.12 -0.17,0.04 -0.21,0.11 -0.2,0.33 -0.06,-0.04 -0.13,-0.07 -0.13,-0.09 0.01,-0.14 -0.11,-0.21 -0.19,-0.19 -0.09,0.01 -0.17,0.12 -0.25,0.19 0,0.01 0,0.01 0,0.03 -0.3,-0.16 -0.59,-0.33 -0.9,-0.51z"/>
     <path class="fil25" d="M6.38 17.19c0,0.03 -0.01,0.06 0,0.09 0.04,0.12 -0.01,0.16 -0.12,0.2 -0.19,0.07 -0.38,0.15 -0.57,0.23 -0.04,0.02 -0.06,0.07 -0.09,0.1 -0.04,0.04 -0.07,0.08 -0.12,0.12 -0.24,-0.21 -0.47,-0.43 -0.7,-0.66 0.15,-0.11 0.3,-0.2 0.43,-0.3 0.17,-0.13 0.33,-0.27 0.49,-0.4 0.19,0.17 0.37,0.34 0.57,0.54 0.04,0.04 0.07,0.06 0.1,0.08 0,0 0,0 0.01,0z"/>
     <path class="fil26" d="M3.97 13.65c-0.1,0.02 -0.17,0.02 -0.18,-0.11 0,-0.03 -0.06,-0.06 -0.1,-0.09 -0.02,-0.01 -0.04,0 -0.06,0 -0.21,0.01 -0.42,0.01 -0.62,0.03 -0.09,0.02 -0.18,0.08 -0.27,0.13 -0.07,-0.25 -0.13,-0.5 -0.18,-0.77 0.07,-0.07 0.13,-0.15 0.19,-0.16 0.32,-0.02 0.65,-0.03 0.97,-0.04 0.07,0.31 0.14,0.61 0.21,0.92 0.01,0.03 0.03,0.05 0.04,0.09z"/>
     <path class="fil11" d="M9.37 10.34c0,-0.16 0.05,-0.26 0.23,-0.28 0.12,-0.01 0.28,-0.05 0.27,-0.25 0,-0.1 0.06,-0.19 0.19,-0.21 0.29,0.25 0.57,0.51 0.86,0.77 -0.13,0.12 -0.19,-0.03 -0.26,-0.03 -0.28,0.07 -0.55,0.15 -0.82,0.22 0.01,0.13 0.2,0.16 0.12,0.31 -0.2,-0.16 -0.39,-0.34 -0.59,-0.53z"/>
     <path class="fil18" d="M3.72 12.63c-0.32,0.02 -0.65,0.03 -0.97,0.05 -0.06,0.01 -0.12,0.09 -0.18,0.14 -0.04,-0.22 -0.07,-0.45 -0.09,-0.69 0.3,-0.06 0.58,-0.11 0.86,-0.14 0.1,-0.01 0.2,0 0.3,0 0.03,0.21 0.06,0.42 0.08,0.64z"/>
     <path class="fil12" d="M4.59 7.9c-0.16,-0.18 -0.3,-0.37 -0.45,-0.55 -0.1,-0.12 -0.22,-0.22 -0.34,-0.34 0.08,-0.14 0.16,-0.27 0.25,-0.4 0.28,0.17 0.56,0.36 0.83,0.54 0.04,0.03 0.06,0.07 0.1,0.11 -0.13,0.22 -0.26,0.43 -0.39,0.64z"/>
     <path class="fil27" d="M2.45 11.65c0,-0.18 0,-0.36 0.02,-0.54 0.07,0 0.13,0.01 0.18,0.02 0.36,0 0.69,-0.09 1.01,-0.25 -0.01,0.2 -0.02,0.39 -0.04,0.6 -0.04,0.01 -0.09,-0.01 -0.11,0 -0.34,0.15 -0.7,0.15 -1.06,0.17z"/>
     <path class="fil25" d="M10.47 12.37c-0.16,-0.04 -0.31,-0.09 -0.47,-0.13 -0.11,-0.03 -0.24,-0.04 -0.35,-0.08 -0.06,-0.03 -0.1,-0.12 -0.15,-0.19 0.05,-0.08 0.1,-0.15 0.18,-0.22 0.44,0.02 0.86,0.04 1.28,0.06 -0.16,0.19 -0.32,0.37 -0.49,0.56z"/>
     <path class="fil28" d="M4.17 16.56c0.3,-0.23 0.61,-0.45 0.93,-0.69 0.09,0.11 0.19,0.22 0.27,0.35 -0.29,0.27 -0.58,0.51 -0.86,0.76 -0.12,-0.13 -0.23,-0.27 -0.34,-0.42z"/>
     <path class="fil29" d="M3.66 10.87c-0.32,0.17 -0.65,0.26 -1.01,0.26 -0.05,-0.01 -0.11,-0.02 -0.17,-0.03 -0.01,-0.15 0,-0.3 0.03,-0.46 0.18,-0.02 0.34,-0.01 0.5,-0.04 0.23,-0.03 0.46,-0.08 0.69,-0.13 -0.01,0.13 -0.02,0.25 -0.04,0.4z"/>
     <path class="fil7" d="M2.89 8.9c0.14,-0.01 0.28,-0.01 0.41,-0.02 0.15,-0.01 0.29,-0.04 0.44,-0.04 0.17,0 0.31,-0.05 0.45,-0.16 -0.06,0.16 -0.13,0.32 -0.19,0.48 -0.01,0.02 -0.01,0.06 -0.03,0.1 -0.23,0.02 -0.45,0.03 -0.66,0.04 -0.19,0.02 -0.37,0.04 -0.56,0.06 0.05,-0.15 0.09,-0.3 0.14,-0.46z"/>
     <path class="fil30" d="M4.51 16.99c0.28,-0.26 0.57,-0.5 0.87,-0.76 0.11,0.11 0.21,0.21 0.31,0.33 -0.15,0.14 -0.31,0.28 -0.48,0.41 -0.13,0.1 -0.28,0.19 -0.43,0.29 -0.1,-0.08 -0.18,-0.17 -0.27,-0.27z"/>
     <path class="fil23" d="M3.7 10.46c-0.23,0.06 -0.46,0.11 -0.69,0.14 -0.16,0.03 -0.32,0.02 -0.5,0.03 0.01,-0.14 0.03,-0.27 0.06,-0.42 0.15,-0.02 0.28,-0.02 0.41,-0.04 0.26,-0.03 0.53,-0.08 0.79,-0.13 -0.02,0.14 -0.04,0.27 -0.07,0.42z"/>
     <path class="fil31" d="M2.45 11.67c0.36,-0.04 0.72,-0.04 1.06,-0.19 0.02,-0.01 0.07,0.01 0.11,0.02 0.02,0.15 0.02,0.31 0.02,0.48 -0.1,0.01 -0.2,0 -0.3,0.01 -0.28,0.03 -0.56,0.08 -0.86,0.13 -0.02,-0.15 -0.03,-0.29 -0.03,-0.45z"/>
     <path class="fil22" d="M3.78 10.03c-0.27,0.06 -0.54,0.11 -0.8,0.14 -0.13,0.02 -0.26,0.02 -0.41,0.03 0.02,-0.14 0.04,-0.28 0.09,-0.43 0.42,-0.05 0.83,-0.02 1.22,-0.16 -0.03,0.14 -0.06,0.27 -0.1,0.42z"/>
     <path class="fil14" d="M3.88 9.6c-0.39,0.15 -0.8,0.12 -1.21,0.16 0.01,-0.13 0.04,-0.26 0.08,-0.4 0.19,-0.02 0.37,-0.04 0.56,-0.06 0.21,-0.01 0.43,-0.02 0.65,-0.03 -0.01,0.11 -0.04,0.21 -0.08,0.33z"/>
     <path class="fil28" d="M11.29 11.5c0,0 -0.02,0 -0.04,0 -0.4,-0.02 -0.78,-0.04 -1.16,-0.07 -0.04,0 -0.07,-0.03 -0.1,-0.05 0.06,-0.08 0.12,-0.15 0.2,-0.22 0.44,-0.03 0.88,-0.05 1.32,-0.06 0.04,0 0.09,0 0.14,0.03 -0.04,0.05 -0.08,0.09 -0.12,0.13 -0.08,0.07 -0.16,0.16 -0.24,0.24z"/>
     <path class="fil21" d="M12.64 10.39c-0.04,-0.06 -0.07,-0.13 -0.1,-0.2 -0.08,-0.13 -0.15,-0.27 -0.25,-0.39 -0.06,-0.09 -0.16,-0.14 -0.25,-0.22 0.12,-0.1 0.25,-0.19 0.39,-0.27 0.09,0.09 0.18,0.18 0.24,0.27 0.12,0.18 0.24,0.37 0.35,0.55 -0.12,0.08 -0.25,0.17 -0.38,0.26z"/>
     <path class="fil30" d="M9.98 11.38c0.04,0.02 0.07,0.05 0.11,0.05 0.38,0.03 0.76,0.05 1.15,0.07 -0.05,0.09 -0.12,0.19 -0.2,0.29 -0.02,0.02 -0.04,0.02 -0.07,0.02 -0.43,-0.02 -0.85,-0.04 -1.29,-0.07 0.09,-0.12 0.19,-0.24 0.3,-0.36z"/>
     <path class="fil22" d="M13.63 8.62c0.03,0.07 0.02,0.15 0.05,0.21 0.15,0.26 0.35,0.47 0.64,0.58 -0.14,0.09 -0.29,0.16 -0.45,0.23 -0.03,-0.07 -0.04,-0.12 -0.07,-0.17 -0.15,-0.24 -0.29,-0.47 -0.44,-0.71 0.09,-0.05 0.17,-0.09 0.27,-0.14z"/>
     <path class="fil18" d="M13.03 10.13c-0.12,-0.18 -0.24,-0.37 -0.36,-0.55 -0.06,-0.09 -0.15,-0.18 -0.23,-0.27 0.09,-0.07 0.19,-0.13 0.3,-0.19 0.07,0.12 0.12,0.23 0.18,0.34 0.1,0.18 0.19,0.37 0.29,0.55 -0.06,0.04 -0.11,0.08 -0.18,0.12z"/>
     <path class="fil27" d="M13.68 9.74c-0.08,0.04 -0.15,0.08 -0.24,0.11 -0.09,-0.14 -0.16,-0.27 -0.23,-0.41 -0.09,-0.15 -0.17,-0.3 -0.26,-0.46 0.08,-0.04 0.16,-0.09 0.25,-0.13 0.02,0.07 0.03,0.12 0.06,0.17 0.13,0.24 0.28,0.48 0.42,0.72z"/>
     <path class="fil31" d="M12.94 8.99c0.1,0.15 0.18,0.3 0.27,0.45 0.07,0.14 0.14,0.27 0.22,0.41 -0.07,0.06 -0.13,0.11 -0.21,0.16 -0.11,-0.18 -0.2,-0.37 -0.3,-0.55 -0.06,-0.11 -0.11,-0.22 -0.17,-0.34 0.06,-0.05 0.12,-0.09 0.19,-0.13z"/>
     <path class="fil29" d="M13.69 9.74c-0.15,-0.24 -0.3,-0.48 -0.43,-0.72 -0.03,-0.05 -0.04,-0.1 -0.05,-0.17 0.04,-0.04 0.08,-0.06 0.14,-0.09 0.15,0.24 0.3,0.47 0.45,0.71 0.03,0.05 0.04,0.1 0.06,0.17 -0.05,0.04 -0.11,0.07 -0.17,0.1z"/>
     <path class="fil30" d="M11.3 11.5c0.07,-0.08 0.15,-0.17 0.23,-0.24 0.04,-0.04 0.08,-0.08 0.13,-0.12 0.04,-0.02 0.07,-0.03 0.11,-0.05 0.07,0.04 0.13,0.08 0.19,0.13 -0.16,0.21 -0.39,0.27 -0.66,0.28z"/>
     <path class="fil4" d="M16.01 15.71c0.13,-0.03 0.27,-0.05 0.4,-0.06 0.04,0 0.07,0.03 0.11,0.05 -0.03,0.04 -0.05,0.09 -0.09,0.1 -0.07,0.03 -0.15,0.04 -0.24,0.06 -0.06,-0.04 -0.12,-0.09 -0.18,-0.15z"/>
     <path class="fil6" d="M13.46 4.06c0,-0.07 0,-0.14 0,-0.23 0.01,-0.15 0.03,-0.3 0.05,-0.44 -0.01,0.22 -0.02,0.44 -0.05,0.67z"/>
     <path class="fil4" d="M18.79 15.27c-0.06,0 -0.13,0.01 -0.17,-0.02 -0.03,-0.02 -0.04,-0.08 -0.06,-0.13 0.05,-0.01 0.1,-0.02 0.15,-0.02 0.04,0 0.07,0.03 0.12,0.05 0,0.04 -0.02,0.07 -0.04,0.12z"/>
     <path class="fil24" d="M15.65 15.13c0.18,0 0.18,0 0.1,0.2 -0.03,-0.06 -0.06,-0.12 -0.1,-0.2z"/>
     <path class="fil6" d="M13.52 3.32c-0.02,-0.04 -0.03,-0.09 -0.04,-0.15 0.02,0.04 0.03,0.09 0.04,0.15z"/>
     <path class="fil1" d="M6.37 17.18c-0.03,-0.01 -0.06,-0.03 -0.1,-0.06 0.03,0.01 0.07,0.03 0.1,0.06z"/>
     <path class="fil6" d="M13.4 4.25c-0.01,0 -0.01,0 -0.03,0 0,-0.02 0.01,-0.04 0.03,-0.06 0.01,0.02 0.01,0.03 0,0.06z"/>
     <path class="fil6" d="M17.09 8.95c0,-0.01 0,-0.03 0.02,-0.05 0,0.02 -0.01,0.03 -0.02,0.05z"/>
     <path class="fil6" d="M13.43 4.13c0,0 0,-0.01 0,-0.01 0,-0.01 0,0.01 0,0.01z"/>
    </g>
   </g>
   <rect class="fil32" width="21.42" height="21.42" rx="2.77" ry="3.06"/>
   <g>
    <path class="fil1" d="M6.38 17.19c0.38,0.26 0.77,0.51 1.16,0.77 0.01,-0.01 0.02,-0.02 0.04,-0.03 -0.21,-2.26 0.53,-4.21 1.91,-5.95 0.06,0.06 0.1,0.15 0.16,0.18 0.11,0.04 0.24,0.05 0.35,0.08 0.16,0.04 0.31,0.09 0.46,0.14 -0.33,0.51 -0.68,1.01 -0.98,1.55 -0.59,1.07 -0.88,2.22 -0.85,3.44 0.01,0.31 0.06,0.62 0.08,0.93 0.01,0.09 0.05,0.12 0.13,0.14 1.04,0.31 2.1,0.39 3.17,0.22 1.37,-0.21 2.57,-0.79 3.63,-1.68 0.26,-0.23 0.62,-0.2 0.84,0.06 0.2,0.24 0.17,0.59 -0.08,0.8 -1.4,1.2 -3.02,1.91 -4.86,2.06 -2.07,0.17 -3.95,-0.39 -5.63,-1.61 -0.15,-0.11 -0.29,-0.22 -0.42,-0.35 0.04,-0.05 0.07,-0.09 0.11,-0.13 0.03,-0.03 0.05,-0.08 0.09,-0.1 0.19,-0.08 0.38,-0.16 0.57,-0.23 0.11,-0.04 0.16,-0.09 0.12,-0.2 -0.01,-0.03 0,-0.06 0,-0.09z"/>
    <path class="fil2" d="M4.06 6.6c0.49,-0.71 1.09,-1.31 1.77,-1.82 1.06,-0.79 2.24,-1.31 3.55,-1.55 0.02,0.13 0.02,0.25 0.02,0.39 0.03,0.24 0.06,0.46 0.09,0.68 -0.38,0.12 -0.77,0.22 -1.15,0.37 -1.3,0.5 -2.38,1.31 -3.22,2.43 -0.04,0.05 -0.08,0.11 -0.13,0.16 -0.05,-0.04 -0.07,-0.08 -0.11,-0.11 -0.27,-0.18 -0.55,-0.37 -0.82,-0.55z"/>
    <path class="fil3" d="M14.73 12.86c0.38,0.16 0.77,0.32 1.15,0.48 0.08,0.03 0.13,0.03 0.2,-0.04 0.81,-0.79 2.08,-0.61 2.66,0.39 -0.03,0.01 -0.04,0.01 -0.06,0.01 -0.37,0.15 -0.6,0.06 -0.69,-0.25 -0.05,-0.19 -0.16,-0.24 -0.34,-0.19 -0.1,0.02 -0.2,0.08 -0.3,0.09 -0.25,0.01 -0.42,0.16 -0.58,0.31 -0.04,0.03 -0.07,0.1 -0.06,0.15 0.04,0.2 0.05,0.38 -0.16,0.5 -0.01,0 -0.02,0.02 -0.02,0.04 -0.09,0.18 -0.18,0.21 -0.38,0.15 -0.04,-0.01 -0.09,0 -0.13,0.01 -0.01,0.01 0.01,0.07 0,0.11 0,0.05 0.02,0.12 -0.01,0.15 -0.1,0.13 -0.22,0.23 -0.4,0.2 -0.02,-0.16 -0.06,-0.31 -0.06,-0.47 0.01,-0.12 -0.03,-0.17 -0.14,-0.2 -0.68,-0.24 -1.34,-0.54 -1.98,-0.91 0,-0.03 0,-0.03 0,-0.04 0.08,-0.07 0.16,-0.18 0.25,-0.19 0.08,-0.02 0.2,0.05 0.19,0.19 0,0.02 0.07,0.05 0.13,0.09 -0.01,-0.22 0.03,-0.29 0.2,-0.33 0.13,-0.04 0.26,-0.07 0.39,-0.12 0.05,-0.02 0.09,-0.08 0.14,-0.13z"/>
    <path class="fil4" d="M15.61 14.98c0.18,0.02 0.3,-0.08 0.4,-0.21 0.03,-0.03 0.01,-0.1 0.01,-0.15 0.01,-0.04 -0.01,-0.1 0,-0.11 0.04,-0.01 0.09,-0.02 0.13,-0.01 0.2,0.06 0.29,0.03 0.38,-0.15 0,-0.02 0.01,-0.04 0.02,-0.04 0.21,-0.12 0.2,-0.3 0.16,-0.5 -0.01,-0.05 0.02,-0.12 0.06,-0.15 0.16,-0.15 0.33,-0.3 0.58,-0.31 0.1,-0.01 0.2,-0.07 0.3,-0.09 0.18,-0.05 0.29,0 0.34,0.19 0.09,0.31 0.32,0.4 0.69,0.25 0.02,0 0.03,0 0.06,0 0.26,0.42 0.3,0.87 0.13,1.34 -0.11,-0.12 -0.2,-0.24 -0.3,-0.36 -0.01,-0.01 -0.02,-0.01 -0.03,-0.01 -0.18,0.03 -0.37,0.03 -0.54,0.09 -0.31,0.1 -0.61,0.23 -0.92,0.36 -0.11,0.05 -0.23,0.1 -0.3,0.18 -0.08,0.1 -0.17,0.14 -0.29,0.17 -0.17,0.05 -0.32,0.15 -0.48,0.23 -0.09,-0.11 -0.17,-0.23 -0.26,-0.36 0.08,-0.21 0.08,-0.21 -0.09,-0.22 -0.02,-0.04 -0.04,-0.08 -0.05,-0.14z"/>
    <path class="fil5" d="M17.08 8.96c-0.01,0.03 -0.03,0.06 -0.06,0.08 -0.2,-0.16 -0.38,-0.32 -0.57,-0.48 -0.25,-0.22 -0.51,-0.44 -0.76,-0.65 -0.1,-0.08 -0.22,-0.14 -0.32,-0.22 -0.22,-0.14 -0.42,-0.3 -0.64,-0.45 -0.1,-0.06 -0.19,-0.11 -0.22,-0.23 0.6,-0.7 1.77,-0.68 2.39,0.03 0.48,0.56 0.54,1.18 0.22,1.85 -0.03,0.03 -0.03,0.05 -0.04,0.07z"/>
    <path class="fil6" d="M14.5 7.01c0.04,0.12 0.13,0.17 0.23,0.23 0.22,0.15 0.42,0.31 0.64,0.45 0.1,0.08 0.22,0.14 0.32,0.22 0.25,0.21 0.51,0.43 0.76,0.65 0.19,0.16 0.37,0.32 0.56,0.49 -0.15,0.17 -0.32,0.33 -0.5,0.48 -0.07,-0.07 -0.11,-0.15 -0.17,-0.19 -0.46,-0.3 -0.92,-0.58 -1.37,-0.87 -0.15,-0.1 -0.3,-0.15 -0.48,-0.13 -0.14,0.02 -0.29,0.04 -0.43,0.07 -0.06,-0.53 0.07,-1 0.44,-1.4z"/>
    <path class="fil7" d="M11.29 1.5c1.02,-0.12 1.98,0.6 2.19,1.66 0.01,0.07 0.02,0.12 0.04,0.16 0,0.02 0,0.03 -0.01,0.06 -0.02,0.15 -0.04,0.3 -0.07,0.44 -0.1,-0.05 -0.18,-0.1 -0.28,-0.14 -0.13,-0.06 -0.29,-0.08 -0.39,-0.18 -0.28,-0.24 -0.63,-0.41 -0.85,-0.73 -0.04,-0.06 -0.11,-0.09 -0.16,-0.14 -0.11,-0.11 -0.25,-0.21 -0.3,-0.34 -0.11,-0.25 -0.19,-0.51 -0.17,-0.79z"/>
    <path class="fil8" d="M16.01 15.7c0.16,-0.08 0.31,-0.18 0.48,-0.23 0.12,-0.03 0.21,-0.07 0.29,-0.17 0.07,-0.08 0.19,-0.13 0.3,-0.18 0.31,-0.13 0.61,-0.26 0.92,-0.36 0.17,-0.06 0.36,-0.06 0.54,-0.09 0.01,0 0.02,0 0.03,0.01 0.1,0.12 0.19,0.24 0.29,0.37 0.01,0.03 0,0.06 -0.03,0.09 -0.05,-0.01 -0.08,-0.04 -0.12,-0.04 -0.05,0 -0.1,0.01 -0.15,0.02 0.02,0.05 0.03,0.11 0.06,0.13 0.04,0.03 0.11,0.02 0.16,0.03 -0.47,0.8 -1.2,1.13 -2.03,0.89 -0.2,-0.06 -0.38,-0.19 -0.56,-0.3 0.09,-0.03 0.17,-0.04 0.24,-0.07 0.04,-0.01 0.06,-0.06 0.09,-0.1 -0.04,-0.02 -0.07,-0.05 -0.11,-0.05 -0.13,0.01 -0.27,0.03 -0.4,0.05 0,0 0,0 0,0z"/>
    <path class="fil9" d="M14.05 8.41c0.15,-0.03 0.3,-0.05 0.44,-0.07 0.18,-0.02 0.33,0.03 0.48,0.13 0.45,0.29 0.91,0.57 1.37,0.87 0.06,0.04 0.1,0.12 0.16,0.19 -0.66,0.37 -1.29,0.33 -1.89,-0.14 -0.11,-0.08 -0.18,0.01 -0.28,0.02 -0.3,-0.11 -0.5,-0.32 -0.65,-0.58 -0.03,-0.06 -0.02,-0.14 -0.04,-0.21 0.14,-0.07 0.27,-0.14 0.41,-0.21z"/>
    <path class="fil10" d="M10.2 11.15c-0.08,-0.08 -0.16,-0.16 -0.24,-0.27 0.08,-0.16 -0.11,-0.19 -0.12,-0.32 0.27,-0.07 0.54,-0.15 0.82,-0.22 0.07,0 0.13,0.15 0.26,0.04 0.05,-0.02 0.1,-0.04 0.15,-0.07 0.31,-0.24 0.63,-0.49 0.96,-0.73 0.1,0.08 0.2,0.13 0.26,0.22 0.1,0.12 0.17,0.26 0.25,0.39 0.03,0.07 0.06,0.14 0.09,0.21 -0.24,0.17 -0.48,0.35 -0.71,0.53 -0.05,0.04 -0.09,0.09 -0.15,0.15 -0.04,0.03 -0.07,0.04 -0.12,0.04 -0.05,-0.02 -0.1,-0.02 -0.14,-0.02 -0.44,0.01 -0.88,0.03 -1.31,0.05z"/>
    <path class="fil11" d="M3.52 15.55c-0.37,-0.59 -0.62,-1.24 -0.78,-1.93 0.09,-0.06 0.18,-0.12 0.27,-0.14 0.2,-0.02 0.41,-0.02 0.62,-0.03 0.02,0 0.04,-0.01 0.06,0 0.04,0.02 0.1,0.06 0.1,0.09 0.01,0.13 0.08,0.13 0.18,0.12 0.19,0.44 0.38,0.88 0.56,1.33 -0.4,0 -0.68,0.3 -1,0.35 -0.01,0.1 -0.01,0.16 -0.01,0.21z"/>
    <path class="fil12" d="M11.28 1.5c-0.01,0.28 0.07,0.54 0.18,0.79 0.05,0.13 0.19,0.23 0.3,0.34 0.05,0.05 0.12,0.08 0.16,0.14 0.22,0.32 0.57,0.49 0.85,0.73 0.1,0.1 0.26,0.12 0.39,0.18 0.1,0.04 0.18,0.09 0.28,0.15 0.02,0.09 0.02,0.16 0.02,0.24 0,0.01 -0.01,0.02 -0.02,0.04 -0.01,0.01 -0.01,0.02 -0.01,0.02 0,0.02 0,0.03 -0.02,0.06 -0.03,0.02 -0.04,0.04 -0.06,0.06 -0.19,-0.04 -0.39,-0.05 -0.54,-0.15 -0.34,-0.21 -0.65,-0.47 -0.97,-0.71 -0.2,-0.15 -0.38,-0.34 -0.59,-0.48 -0.22,-0.14 -0.37,-0.34 -0.51,-0.56 -0.06,-0.09 -0.1,-0.19 -0.23,-0.23 -0.2,-0.08 -0.19,-0.1 -0.1,-0.29 0.01,-0.02 0.01,-0.04 0.01,-0.06 0.26,-0.17 0.54,-0.24 0.86,-0.27z"/>
    <path class="fil13" d="M7.08 9.08c-0.19,-0.51 -0.1,-0.98 0.23,-1.41 0.48,-0.63 1.4,-0.77 2.05,-0.3 -0.04,0.03 -0.08,0.04 -0.12,0.06 -0.31,0.19 -0.61,0.39 -0.93,0.57 -0.22,0.12 -0.41,0.27 -0.54,0.48 -0.17,0.27 -0.38,0.49 -0.69,0.6z"/>
    <path class="fil14" d="M10.41 1.77c0.01,0.02 0.01,0.04 0,0.06 -0.09,0.19 -0.1,0.21 0.1,0.29 0.13,0.04 0.17,0.14 0.23,0.23 0.14,0.22 0.29,0.42 0.52,0.56 0.2,0.14 0.38,0.33 0.58,0.48 0.32,0.24 0.63,0.5 0.97,0.71 0.15,0.1 0.35,0.11 0.55,0.15 0.03,0 0.03,0 0.04,0 -0.06,0.13 -0.13,0.27 -0.21,0.4 -0.23,-0.08 -0.46,-0.14 -0.66,-0.26 -0.27,-0.15 -0.5,-0.37 -0.78,-0.51 -0.37,-0.2 -0.67,-0.5 -1.01,-0.75 -0.19,-0.15 -0.36,-0.34 -0.58,-0.45 -0.17,-0.09 -0.29,-0.2 -0.33,-0.39 0.19,-0.17 0.38,-0.34 0.58,-0.52z"/>
    <path class="fil15" d="M9.75 7.78c0.25,0.28 0.29,0.63 0.25,0.98 -0.03,0.17 -0.12,0.33 -0.2,0.5 -0.21,-0.14 0.08,-0.12 0.06,-0.23 -0.07,-0.05 -0.14,-0.1 -0.21,-0.1 -0.33,0.02 -0.62,0.17 -0.87,0.36 -0.17,0.13 -0.32,0.28 -0.5,0.39 -0.15,0.09 -0.21,0.19 -0.15,0.36 -0.18,-0.09 -0.36,-0.17 -0.54,-0.27 0.03,-0.03 0.06,-0.05 0.08,-0.07 0.07,-0.1 0.13,-0.21 0.21,-0.3 0.03,-0.05 0.08,-0.08 0.12,-0.12 0.25,-0.27 0.49,-0.55 0.76,-0.82 0.19,-0.19 0.42,-0.34 0.62,-0.53 0.11,-0.1 0.22,-0.17 0.37,-0.15z"/>
    <path class="fil16" d="M9.82 2.3c0.05,0.18 0.17,0.29 0.34,0.38 0.22,0.11 0.39,0.3 0.58,0.45 0.34,0.25 0.64,0.55 1.01,0.75 0.28,0.14 0.51,0.36 0.78,0.51 0.2,0.12 0.43,0.18 0.65,0.27 -0.11,0.14 -0.23,0.29 -0.36,0.42 -0.08,-0.07 -0.14,-0.15 -0.21,-0.2 -0.09,-0.05 -0.2,-0.08 -0.3,-0.13 -0.44,-0.26 -0.88,-0.52 -1.33,-0.78 -0.08,-0.04 -0.16,-0.1 -0.23,-0.16 -0.21,-0.19 -0.4,-0.41 -0.62,-0.58 -0.18,-0.14 -0.41,-0.22 -0.54,-0.43 -0.01,-0.01 -0.03,0 -0.05,-0.01 0.09,-0.16 0.18,-0.32 0.28,-0.49z"/>
    <path class="fil17" d="M12.53 12.86c-0.49,-0.35 -0.98,-0.69 -1.48,-1.06 0.07,-0.11 0.14,-0.21 0.22,-0.3 0,0 0.02,0 0.03,0 0.27,-0.01 0.5,-0.07 0.67,-0.28 0.44,0.3 0.88,0.59 1.33,0.9 0.05,0.15 -0.01,0.22 -0.12,0.29 -0.19,0.11 -0.38,0.23 -0.57,0.35 -0.03,0.02 -0.05,0.06 -0.08,0.1z"/>
    <path class="fil18" d="M9.75 7.77c-0.15,-0.01 -0.26,0.06 -0.37,0.16 -0.2,0.19 -0.43,0.34 -0.62,0.53 -0.27,0.27 -0.51,0.55 -0.76,0.82 -0.04,0.04 -0.09,0.07 -0.12,0.12 -0.08,0.1 -0.14,0.2 -0.21,0.3 -0.02,0.02 -0.05,0.04 -0.09,0.06 -0.24,-0.16 -0.4,-0.39 -0.5,-0.67 0.31,-0.12 0.52,-0.34 0.69,-0.61 0.13,-0.21 0.32,-0.36 0.54,-0.48 0.32,-0.18 0.62,-0.38 0.93,-0.57 0.04,-0.02 0.08,-0.03 0.12,-0.05 0.14,0.12 0.26,0.25 0.39,0.39z"/>
    <path class="fil19" d="M2.9 8.9c0.2,-0.68 0.51,-1.29 0.89,-1.88 0.13,0.11 0.25,0.21 0.35,0.33 0.15,0.18 0.29,0.37 0.44,0.56 -0.12,0.25 -0.25,0.5 -0.39,0.76 -0.14,0.12 -0.28,0.17 -0.45,0.17 -0.15,0 -0.29,0.03 -0.44,0.04 -0.13,0.01 -0.27,0.01 -0.4,0.02z"/>
    <path class="fil20" d="M9.53 2.8c0.03,0 0.05,-0.01 0.06,0 0.13,0.21 0.36,0.29 0.54,0.43 0.22,0.17 0.41,0.39 0.62,0.58 0.07,0.06 0.15,0.12 0.23,0.16 0.45,0.26 0.89,0.52 1.33,0.78 0.1,0.05 0.21,0.08 0.3,0.13 0.07,0.05 0.13,0.13 0.2,0.2 -0.13,0.1 -0.26,0.19 -0.4,0.27 -0.23,-0.17 -0.44,-0.33 -0.66,-0.48 -0.27,-0.18 -0.57,-0.33 -0.83,-0.52 -0.31,-0.22 -0.61,-0.45 -0.89,-0.71 -0.22,-0.2 -0.4,-0.24 -0.63,-0.04 0,-0.12 0,-0.24 0,-0.37 0.04,-0.15 0.08,-0.28 0.13,-0.43z"/>
    <path class="fil21" d="M8.14 10.04c-0.07,-0.17 -0.01,-0.27 0.14,-0.36 0.18,-0.11 0.33,-0.26 0.5,-0.39 0.25,-0.19 0.54,-0.34 0.87,-0.36 0.07,0 0.14,0.05 0.21,0.1 0.02,0.11 -0.27,0.09 -0.07,0.24 0.1,0.1 0.18,0.21 0.26,0.32 -0.12,0.03 -0.18,0.12 -0.18,0.22 0.01,0.2 -0.15,0.24 -0.27,0.25 -0.18,0.02 -0.23,0.12 -0.24,0.27 -0.08,-0.08 -0.17,-0.17 -0.26,-0.24 -0.05,-0.04 -0.13,-0.07 -0.19,-0.05 -0.25,0.05 -0.5,0.07 -0.77,0z"/>
    <path class="fil22" d="M9.4 3.62c0.23,-0.22 0.41,-0.18 0.63,0.02 0.28,0.26 0.58,0.49 0.89,0.71 0.26,0.19 0.56,0.34 0.83,0.52 0.22,0.15 0.43,0.31 0.65,0.48 -0.17,0.08 -0.35,0.14 -0.55,0.2 -0.13,-0.15 -0.27,-0.27 -0.36,-0.42 -0.1,-0.17 -0.25,-0.26 -0.43,-0.33 -0.32,-0.12 -0.64,-0.24 -0.89,-0.5 -0.14,-0.15 -0.3,-0.14 -0.47,-0.02 -0.04,0.02 -0.1,0.02 -0.15,0.04 -0.01,-0.01 -0.02,-0.01 -0.05,-0.01 -0.04,-0.23 -0.07,-0.45 -0.1,-0.69z"/>
    <path class="fil10" d="M3.52 15.57c0,-0.07 0,-0.13 0.01,-0.23 0.32,-0.05 0.6,-0.35 1,-0.34 0.2,0.28 0.38,0.56 0.56,0.86 -0.31,0.25 -0.62,0.47 -0.93,0.69 -0.21,-0.32 -0.43,-0.65 -0.64,-0.98z"/>
    <path class="fil23" d="M9.55 4.33c0.05,-0.03 0.11,-0.03 0.15,-0.05 0.17,-0.12 0.33,-0.13 0.47,0.02 0.25,0.26 0.57,0.38 0.89,0.5 0.18,0.07 0.33,0.16 0.43,0.33 0.09,0.15 0.23,0.27 0.35,0.42 -0.61,0.14 -1.16,-0.02 -1.66,-0.39 -0.28,-0.21 -0.49,-0.49 -0.63,-0.83z"/>
    <path class="fil24" d="M12.53 12.87c0.03,-0.05 0.05,-0.09 0.08,-0.11 0.19,-0.12 0.38,-0.24 0.57,-0.35 0.11,-0.07 0.17,-0.14 0.12,-0.28 0.47,0.23 0.94,0.47 1.42,0.73 -0.04,0.05 -0.08,0.11 -0.13,0.13 -0.13,0.05 -0.26,0.08 -0.39,0.12 -0.17,0.04 -0.21,0.11 -0.2,0.33 -0.06,-0.04 -0.13,-0.07 -0.13,-0.09 0.01,-0.14 -0.11,-0.21 -0.19,-0.19 -0.09,0.01 -0.17,0.12 -0.25,0.19 0,0.01 0,0.01 0,0.03 -0.3,-0.16 -0.59,-0.33 -0.9,-0.51z"/>
    <path class="fil25" d="M6.38 17.19c0,0.03 -0.01,0.06 0,0.09 0.04,0.12 -0.01,0.16 -0.12,0.2 -0.19,0.07 -0.38,0.15 -0.57,0.23 -0.04,0.02 -0.06,0.07 -0.09,0.1 -0.04,0.04 -0.07,0.08 -0.12,0.12 -0.24,-0.21 -0.47,-0.43 -0.7,-0.66 0.15,-0.11 0.3,-0.2 0.43,-0.3 0.17,-0.13 0.33,-0.27 0.49,-0.4 0.19,0.17 0.37,0.34 0.57,0.54 0.04,0.04 0.07,0.06 0.1,0.08 0,0 0,0 0.01,0z"/>
    <path class="fil26" d="M3.97 13.65c-0.1,0.02 -0.17,0.02 -0.18,-0.11 0,-0.03 -0.06,-0.06 -0.1,-0.09 -0.02,-0.01 -0.04,0 -0.06,0 -0.21,0.01 -0.42,0.01 -0.62,0.03 -0.09,0.02 -0.18,0.08 -0.27,0.13 -0.07,-0.25 -0.13,-0.5 -0.18,-0.77 0.07,-0.07 0.13,-0.15 0.19,-0.16 0.32,-0.02 0.65,-0.03 0.97,-0.04 0.07,0.31 0.14,0.61 0.21,0.92 0.01,0.03 0.03,0.05 0.04,0.09z"/>
    <path class="fil11" d="M9.37 10.34c0,-0.16 0.05,-0.26 0.23,-0.28 0.12,-0.01 0.28,-0.05 0.27,-0.25 0,-0.1 0.06,-0.19 0.19,-0.21 0.29,0.25 0.57,0.51 0.86,0.77 -0.13,0.12 -0.19,-0.03 -0.26,-0.03 -0.28,0.07 -0.55,0.15 -0.82,0.22 0.01,0.13 0.2,0.16 0.12,0.31 -0.2,-0.16 -0.39,-0.34 -0.59,-0.53z"/>
    <path class="fil18" d="M3.72 12.63c-0.32,0.02 -0.65,0.03 -0.97,0.05 -0.06,0.01 -0.12,0.09 -0.18,0.14 -0.04,-0.22 -0.07,-0.45 -0.09,-0.69 0.3,-0.06 0.58,-0.11 0.86,-0.14 0.1,-0.01 0.2,0 0.3,0 0.03,0.21 0.06,0.42 0.08,0.64z"/>
    <path class="fil12" d="M4.59 7.9c-0.16,-0.18 -0.3,-0.37 -0.45,-0.55 -0.1,-0.12 -0.22,-0.22 -0.34,-0.34 0.08,-0.14 0.16,-0.27 0.25,-0.4 0.28,0.17 0.56,0.36 0.83,0.54 0.04,0.03 0.06,0.07 0.1,0.11 -0.13,0.22 -0.26,0.43 -0.39,0.64z"/>
    <path class="fil27" d="M2.45 11.65c0,-0.18 0,-0.36 0.02,-0.54 0.07,0 0.13,0.01 0.18,0.02 0.36,0 0.69,-0.09 1.01,-0.25 -0.01,0.2 -0.02,0.39 -0.04,0.6 -0.04,0.01 -0.09,-0.01 -0.11,0 -0.34,0.15 -0.7,0.15 -1.06,0.17z"/>
    <path class="fil25" d="M10.47 12.37c-0.16,-0.04 -0.31,-0.09 -0.47,-0.13 -0.11,-0.03 -0.24,-0.04 -0.35,-0.08 -0.06,-0.03 -0.1,-0.12 -0.15,-0.19 0.05,-0.08 0.1,-0.15 0.18,-0.22 0.44,0.02 0.86,0.04 1.28,0.06 -0.16,0.19 -0.32,0.37 -0.49,0.56z"/>
    <path class="fil28" d="M4.17 16.56c0.3,-0.23 0.61,-0.45 0.93,-0.69 0.09,0.11 0.19,0.22 0.27,0.35 -0.29,0.27 -0.58,0.51 -0.86,0.76 -0.12,-0.13 -0.23,-0.27 -0.34,-0.42z"/>
    <path class="fil29" d="M3.66 10.87c-0.32,0.17 -0.65,0.26 -1.01,0.26 -0.05,-0.01 -0.11,-0.02 -0.17,-0.03 -0.01,-0.15 0,-0.3 0.03,-0.46 0.18,-0.02 0.34,-0.01 0.5,-0.04 0.23,-0.03 0.46,-0.08 0.69,-0.13 -0.01,0.13 -0.02,0.25 -0.04,0.4z"/>
    <path class="fil7" d="M2.89 8.9c0.14,-0.01 0.28,-0.01 0.41,-0.02 0.15,-0.01 0.29,-0.04 0.44,-0.04 0.17,0 0.31,-0.05 0.45,-0.16 -0.06,0.16 -0.13,0.32 -0.19,0.48 -0.01,0.02 -0.01,0.06 -0.03,0.1 -0.23,0.02 -0.45,0.03 -0.66,0.04 -0.19,0.02 -0.37,0.04 -0.56,0.06 0.05,-0.15 0.09,-0.3 0.14,-0.46z"/>
    <path class="fil30" d="M4.51 16.99c0.28,-0.26 0.57,-0.5 0.87,-0.76 0.11,0.11 0.21,0.21 0.31,0.33 -0.15,0.14 -0.31,0.28 -0.48,0.41 -0.13,0.1 -0.28,0.19 -0.43,0.29 -0.1,-0.08 -0.18,-0.17 -0.27,-0.27z"/>
    <path class="fil23" d="M3.7 10.46c-0.23,0.06 -0.46,0.11 -0.69,0.14 -0.16,0.03 -0.32,0.02 -0.5,0.03 0.01,-0.14 0.03,-0.27 0.06,-0.42 0.15,-0.02 0.28,-0.02 0.41,-0.04 0.26,-0.03 0.53,-0.08 0.79,-0.13 -0.02,0.14 -0.04,0.27 -0.07,0.42z"/>
    <path class="fil31" d="M2.45 11.67c0.36,-0.04 0.72,-0.04 1.06,-0.19 0.02,-0.01 0.07,0.01 0.11,0.02 0.02,0.15 0.02,0.31 0.02,0.48 -0.1,0.01 -0.2,0 -0.3,0.01 -0.28,0.03 -0.56,0.08 -0.86,0.13 -0.02,-0.15 -0.03,-0.29 -0.03,-0.45z"/>
    <path class="fil22" d="M3.78 10.03c-0.27,0.06 -0.54,0.11 -0.8,0.14 -0.13,0.02 -0.26,0.02 -0.41,0.03 0.02,-0.14 0.04,-0.28 0.09,-0.43 0.42,-0.05 0.83,-0.02 1.22,-0.16 -0.03,0.14 -0.06,0.27 -0.1,0.42z"/>
    <path class="fil14" d="M3.88 9.6c-0.39,0.15 -0.8,0.12 -1.21,0.16 0.01,-0.13 0.04,-0.26 0.08,-0.4 0.19,-0.02 0.37,-0.04 0.56,-0.06 0.21,-0.01 0.43,-0.02 0.65,-0.03 -0.01,0.11 -0.04,0.21 -0.08,0.33z"/>
    <path class="fil28" d="M11.29 11.5c0,0 -0.02,0 -0.04,0 -0.4,-0.02 -0.78,-0.04 -1.16,-0.07 -0.04,0 -0.07,-0.03 -0.1,-0.05 0.06,-0.08 0.12,-0.15 0.2,-0.22 0.44,-0.03 0.88,-0.05 1.32,-0.06 0.04,0 0.09,0 0.14,0.03 -0.04,0.05 -0.08,0.09 -0.12,0.13 -0.08,0.07 -0.16,0.16 -0.24,0.24z"/>
    <path class="fil21" d="M12.64 10.39c-0.04,-0.06 -0.07,-0.13 -0.1,-0.2 -0.08,-0.13 -0.15,-0.27 -0.25,-0.39 -0.06,-0.09 -0.16,-0.14 -0.25,-0.22 0.12,-0.1 0.25,-0.19 0.39,-0.27 0.09,0.09 0.18,0.18 0.24,0.27 0.12,0.18 0.24,0.37 0.35,0.55 -0.12,0.08 -0.25,0.17 -0.38,0.26z"/>
    <path class="fil30" d="M9.98 11.38c0.04,0.02 0.07,0.05 0.11,0.05 0.38,0.03 0.76,0.05 1.15,0.07 -0.05,0.09 -0.12,0.19 -0.2,0.29 -0.02,0.02 -0.04,0.02 -0.07,0.02 -0.43,-0.02 -0.85,-0.04 -1.29,-0.07 0.09,-0.12 0.19,-0.24 0.3,-0.36z"/>
    <path class="fil22" d="M13.63 8.62c0.03,0.07 0.02,0.15 0.05,0.21 0.15,0.26 0.35,0.47 0.64,0.58 -0.14,0.09 -0.29,0.16 -0.45,0.23 -0.03,-0.07 -0.04,-0.12 -0.07,-0.17 -0.15,-0.24 -0.29,-0.47 -0.44,-0.71 0.09,-0.05 0.17,-0.09 0.27,-0.14z"/>
    <path class="fil18" d="M13.03 10.13c-0.12,-0.18 -0.24,-0.37 -0.36,-0.55 -0.06,-0.09 -0.15,-0.18 -0.23,-0.27 0.09,-0.07 0.19,-0.13 0.3,-0.19 0.07,0.12 0.12,0.23 0.18,0.34 0.1,0.18 0.19,0.37 0.29,0.55 -0.06,0.04 -0.11,0.08 -0.18,0.12z"/>
    <path class="fil27" d="M13.68 9.74c-0.08,0.04 -0.15,0.08 -0.24,0.11 -0.09,-0.14 -0.16,-0.27 -0.23,-0.41 -0.09,-0.15 -0.17,-0.3 -0.26,-0.46 0.08,-0.04 0.16,-0.09 0.25,-0.13 0.02,0.07 0.03,0.12 0.06,0.17 0.13,0.24 0.28,0.48 0.42,0.72z"/>
    <path class="fil31" d="M12.94 8.99c0.1,0.15 0.18,0.3 0.27,0.45 0.07,0.14 0.14,0.27 0.22,0.41 -0.07,0.06 -0.13,0.11 -0.21,0.16 -0.11,-0.18 -0.2,-0.37 -0.3,-0.55 -0.06,-0.11 -0.11,-0.22 -0.17,-0.34 0.06,-0.05 0.12,-0.09 0.19,-0.13z"/>
    <path class="fil29" d="M13.69 9.74c-0.15,-0.24 -0.3,-0.48 -0.43,-0.72 -0.03,-0.05 -0.04,-0.1 -0.05,-0.17 0.04,-0.04 0.08,-0.06 0.14,-0.09 0.15,0.24 0.3,0.47 0.45,0.71 0.03,0.05 0.04,0.1 0.06,0.17 -0.05,0.04 -0.11,0.07 -0.17,0.1z"/>
    <path class="fil30" d="M11.3 11.5c0.07,-0.08 0.15,-0.17 0.23,-0.24 0.04,-0.04 0.08,-0.08 0.13,-0.12 0.04,-0.02 0.07,-0.03 0.11,-0.05 0.07,0.04 0.13,0.08 0.19,0.13 -0.16,0.21 -0.39,0.27 -0.66,0.28z"/>
    <path class="fil4" d="M16.01 15.71c0.13,-0.03 0.27,-0.05 0.4,-0.06 0.04,0 0.07,0.03 0.11,0.05 -0.03,0.04 -0.05,0.09 -0.09,0.1 -0.07,0.03 -0.15,0.04 -0.24,0.06 -0.06,-0.04 -0.12,-0.09 -0.18,-0.15z"/>
    <path class="fil6" d="M13.46 4.06c0,-0.07 0,-0.14 0,-0.23 0.01,-0.15 0.03,-0.3 0.05,-0.44 -0.01,0.22 -0.02,0.44 -0.05,0.67z"/>
    <path class="fil4" d="M18.79 15.27c-0.06,0 -0.13,0.01 -0.17,-0.02 -0.03,-0.02 -0.04,-0.08 -0.06,-0.13 0.05,-0.01 0.1,-0.02 0.15,-0.02 0.04,0 0.07,0.03 0.12,0.05 0,0.04 -0.02,0.07 -0.04,0.12z"/>
    <path class="fil24" d="M15.65 15.13c0.18,0 0.18,0 0.1,0.2 -0.03,-0.06 -0.06,-0.12 -0.1,-0.2z"/>
    <path class="fil6" d="M13.52 3.32c-0.02,-0.04 -0.03,-0.09 -0.04,-0.15 0.02,0.04 0.03,0.09 0.04,0.15z"/>
    <path class="fil1" d="M6.37 17.18c-0.03,-0.01 -0.06,-0.03 -0.1,-0.06 0.03,0.01 0.07,0.03 0.1,0.06z"/>
    <path class="fil6" d="M13.4 4.25c-0.01,0 -0.01,0 -0.03,0 0,-0.02 0.01,-0.04 0.03,-0.06 0.01,0.02 0.01,0.03 0,0.06z"/>
    <path class="fil6" d="M17.09 8.95c0,-0.01 0,-0.03 0.02,-0.05 0,0.02 -0.01,0.03 -0.02,0.05z"/>
    <path class="fil6" d="M13.43 4.13c0,0 0,-0.01 0,-0.01 0,-0.01 0,0.01 0,0.01z"/>
   </g>
  </g>
 </g>
</svg>
